<svg xmlns="http://www.w3.org/2000/svg" xmlns:xlink="http://www.w3.org/1999/xlink" preserveAspectRatio="xMidYMid" width="596.7" height="105.3" viewBox="0 0 2550 450">
  <defs>
    <style>
      .cls-1, .cls-3 {
        fill: #fff;
      }

      .cls-1 {
        fill-rule: evenodd;
      }

      .cls-2, .cls-3 {
        font-size: 30.837px;
      }

      .cls-3 {
        text-anchor: middle;
        font-family: "Montserrat-Bold";
        font-weight: bold;
      }
    </style>
  </defs>
  <g>
    <path d="M1622.084,30.464 C1661.118,29.980 1698.765,79.028 1724.958,97.634 C1725.215,97.634 1725.473,97.634 1725.731,97.634 C1725.464,78.903 1721.382,45.816 1728.825,32.780 C1738.517,29.997 1796.966,29.088 1800.759,35.096 C1805.671,40.787 1803.080,59.988 1803.080,69.840 C1803.080,100.977 1803.080,132.123 1803.080,163.260 C1826.024,182.560 1848.976,201.865 1871.920,221.165 C1872.032,234.449 1857.060,251.685 1847.942,255.908 C1845.106,255.908 1842.269,255.908 1839.434,255.908 C1769.569,198.009 1699.683,140.092 1629.819,82.193 C1628.272,83.737 1626.725,85.281 1625.178,86.825 C1556.860,143.180 1488.522,199.553 1420.204,255.908 C1417.368,255.908 1414.531,255.908 1411.695,255.908 C1405.867,253.268 1384.893,230.021 1388.491,221.165 C1395.001,208.062 1441.965,174.864 1455.784,164.032 C1489.814,135.726 1523.855,107.411 1557.884,79.104 C1579.514,62.148 1596.487,44.213 1622.084,30.464 ZM1667.720,299.916 C1642.455,299.916 1617.183,299.916 1591.918,299.916 C1591.918,329.252 1591.918,358.596 1591.918,387.932 C1591.920,396.454 1594.615,414.938 1588.050,414.954 C1571.813,419.347 1472.801,418.038 1464.292,411.866 C1454.768,404.957 1456.558,388.959 1456.558,372.491 C1456.558,342.126 1456.558,311.751 1456.558,281.386 C1456.558,271.219 1454.686,255.659 1458.105,248.187 C1515.079,201.353 1572.071,154.505 1629.045,107.671 C1629.303,107.671 1629.561,107.671 1629.819,107.671 C1687.567,155.020 1745.332,202.383 1803.080,249.732 C1803.080,287.302 1803.080,324.883 1803.080,362.454 C1803.080,376.218 1805.938,398.541 1799.986,407.234 C1796.119,409.807 1792.251,412.381 1788.383,414.954 C1748.166,414.954 1707.937,414.954 1667.720,414.954 C1667.720,376.612 1667.720,338.258 1667.720,299.916 Z" class="cls-1"/>
    <text transform="translate(694 420) scale(17.32 17.51)" class="cls-2"><tspan x="0" class="cls-3">AIRH</tspan></text>
    <text transform="translate(2207 415) scale(17.32 17.51)" class="cls-2"><tspan x="0" class="cls-3">ST</tspan></text>
  </g>
</svg>
