<svg xmlns="http://www.w3.org/2000/svg" xmlns:xlink="http://www.w3.org/1999/xlink" preserveAspectRatio="xMidYMid" width="117" height="51.48" viewBox="0 0 500 220">
  <defs>
    <style>
      .cls-1, .cls-3, .cls-5 {
        fill: #fff;
      }

      .cls-1 {
        fill-rule: evenodd;
      }

      .cls-2, .cls-3 {
        font-size: 30.837px;
      }

      .cls-3 {
        text-anchor: middle;
        font-family: "Montserrat-Bold";
        font-weight: bold;
      }

      .cls-4, .cls-5 {
        font-size: 17.132px;
      }

      .cls-4 {
        opacity: 0.75;
      }

      .cls-5 {
        font-family: "KozGoPr6N-Regular";
      }
    </style>
  </defs>
  <g>
    <g>
      <path d="M318.417,32.293 C326.224,32.196 333.753,42.006 338.992,45.727 C339.043,45.727 339.095,45.727 339.146,45.727 C339.093,41.981 338.276,35.363 339.765,32.756 C341.703,32.199 353.393,32.018 354.152,33.219 C355.134,34.357 354.616,38.198 354.616,40.168 C354.616,46.395 354.616,52.625 354.616,58.852 C359.205,62.712 363.795,66.573 368.384,70.433 C368.406,73.090 365.412,76.537 363.588,77.382 C363.021,77.382 362.454,77.382 361.887,77.382 C347.914,65.802 333.937,54.218 319.964,42.639 C319.654,42.947 319.345,43.256 319.036,43.565 C305.372,54.836 291.704,66.111 278.041,77.382 C277.474,77.382 276.906,77.382 276.339,77.382 C275.173,76.854 270.979,72.204 271.698,70.433 C273.000,67.812 282.393,61.173 285.157,59.006 C291.963,53.345 298.771,47.682 305.577,42.021 C309.903,38.630 313.297,35.043 318.417,32.293 ZM327.544,86.183 C322.491,86.183 317.437,86.183 312.384,86.183 C312.384,92.050 312.384,97.919 312.384,103.786 C312.384,105.491 312.923,109.188 311.610,109.191 C308.363,110.069 288.560,109.808 286.859,108.573 C284.954,107.191 285.312,103.992 285.312,100.698 C285.312,94.625 285.312,88.550 285.312,82.477 C285.312,80.444 284.937,77.332 285.621,75.837 C297.016,66.471 308.414,57.101 319.809,47.734 C319.861,47.734 319.912,47.734 319.964,47.734 C331.513,57.204 343.066,66.677 354.616,76.146 C354.616,83.660 354.616,91.177 354.616,98.691 C354.616,101.444 355.188,105.908 353.997,107.647 C353.224,108.161 352.450,108.676 351.677,109.191 C343.633,109.191 335.587,109.191 327.544,109.191 C327.544,101.522 327.544,93.852 327.544,86.183 Z" class="cls-1"/>
      <text transform="translate(137 110) scale(3.46 3.5)" class="cls-2"><tspan x="0" class="cls-3">AIRH</tspan></text>
      <text transform="translate(433 110) scale(3.46 3.5)" class="cls-2"><tspan x="0" class="cls-3">ST</tspan></text>
    </g>
    <text transform="translate(185 196) scale(3.46 3.5)" class="cls-4"><tspan class="cls-5">エアホスト</tspan></text>
  </g>
</svg>
